<svg width="61" height="60" viewBox="0 0 61 60" fill="none" xmlns="http://www.w3.org/2000/svg">
<path opacity="0.3" fill-rule="evenodd" clip-rule="evenodd" d="M20.5493 7.5V8.75C20.5493 10.8211 22.2282 12.5 24.2993 12.5H36.7993C38.8704 12.5 40.5493 10.8211 40.5493 8.75V7.5H45.5493C48.3107 7.5 50.5493 9.73858 50.5493 12.5V52.5C50.5493 55.2614 48.3107 57.5 45.5493 57.5H15.5493C12.7879 57.5 10.5493 55.2614 10.5493 52.5V12.5C10.5493 9.73858 12.7879 7.5 15.5493 7.5H20.5493Z" fill="#00BEEA"/>
<path fill-rule="evenodd" clip-rule="evenodd" d="M27.7368 39.375C27.1379 39.375 26.5389 39.1354 26.0597 38.6562L21.2681 33.8646C20.3097 32.9063 20.3097 31.4687 21.2681 30.5104C22.2264 29.5521 23.7837 29.5521 24.6222 30.5104L27.7368 33.625L35.6431 25.7188C36.6014 24.7604 38.0389 24.7604 38.9972 25.7188C39.9556 26.6771 39.9556 28.1146 38.9972 29.0729L29.4139 38.6562C28.9347 39.1354 28.3358 39.375 27.7368 39.375Z" fill="#00BEEA"/>
<path fill-rule="evenodd" clip-rule="evenodd" d="M28.0493 5C28.0493 3.61929 29.1686 2.5 30.5493 2.5C31.93 2.5 33.0493 3.61929 33.0493 5H36.7993C37.4897 5 38.0493 5.55964 38.0493 6.25V8.75C38.0493 9.44036 37.4897 10 36.7993 10H24.2993C23.609 10 23.0493 9.44036 23.0493 8.75V6.25C23.0493 5.55964 23.609 5 24.2993 5H28.0493Z" fill="#00BEEA"/>
</svg>
