<svg width="60" height="60" viewBox="0 0 60 60" fill="none" xmlns="http://www.w3.org/2000/svg">
<path opacity="0.3" fill-rule="evenodd" clip-rule="evenodd" d="M20 7.5V8.75C20 10.8211 21.6789 12.5 23.75 12.5H36.25C38.3211 12.5 40 10.8211 40 8.75V7.5H45C47.7614 7.5 50 9.73858 50 12.5V52.5C50 55.2614 47.7614 57.5 45 57.5H15C12.2386 57.5 10 55.2614 10 52.5V12.5C10 9.73858 12.2386 7.5 15 7.5H20Z" fill="#E85082"/>
<path fill-rule="evenodd" clip-rule="evenodd" d="M27.1875 39.375C26.5885 39.375 25.9896 39.1354 25.5104 38.6562L20.7187 33.8646C19.7604 32.9063 19.7604 31.4687 20.7187 30.5104C21.6771 29.5521 23.2344 29.5521 24.0729 30.5104L27.1875 33.625L35.0937 25.7188C36.0521 24.7604 37.4896 24.7604 38.4479 25.7188C39.4062 26.6771 39.4062 28.1146 38.4479 29.0729L28.8646 38.6562C28.3854 39.1354 27.7865 39.375 27.1875 39.375Z" fill="#E85082"/>
<path fill-rule="evenodd" clip-rule="evenodd" d="M27.5 5C27.5 3.61929 28.6193 2.5 30 2.5C31.3807 2.5 32.5 3.61929 32.5 5H36.25C36.9404 5 37.5 5.55964 37.5 6.25V8.75C37.5 9.44036 36.9404 10 36.25 10H23.75C23.0596 10 22.5 9.44036 22.5 8.75V6.25C22.5 5.55964 23.0596 5 23.75 5H27.5Z" fill="#E85082"/>
</svg>
