<svg width="80" height="68" viewBox="0 0 80 68" fill="none" xmlns="http://www.w3.org/2000/svg">
<path d="M40 67.3333C58.4095 67.3333 73.3333 52.4095 73.3333 34C73.3333 15.5905 58.4095 0.666626 40 0.666626C21.5905 0.666626 6.66663 15.5905 6.66663 34C6.66663 52.4095 21.5905 67.3333 40 67.3333Z" fill="#CAF0DB"/>
<path fill-rule="evenodd" clip-rule="evenodd" d="M36.1225 45.6319C35.1531 45.6319 34.1838 45.2442 33.4083 44.4687L25.6537 36.714C24.1027 35.1631 24.1027 32.8367 25.6537 31.2858C27.2046 29.7348 29.7249 29.7348 31.0819 31.2858L36.1225 36.3263L48.9177 23.5311C50.4686 21.9802 52.795 21.9802 54.3459 23.5311C55.8969 25.0821 55.8969 27.4085 54.3459 28.9594L38.8366 44.4687C38.0611 45.2442 37.0918 45.6319 36.1225 45.6319Z" fill="#50CD89"/>
</svg>
