<svg width="80" height="69" viewBox="0 0 80 69" fill="none" xmlns="http://www.w3.org/2000/svg">
<path opacity="0.3" d="M39.9995 67.7524C58.409 67.7524 73.3328 52.8285 73.3328 34.419C73.3328 16.0095 58.409 1.08569 39.9995 1.08569C21.59 1.08569 6.66617 16.0095 6.66617 34.419C6.66617 52.8285 21.59 67.7524 39.9995 67.7524Z" fill="#FFA800"/>
<path d="M43.3328 21.0855C43.3328 19.2446 41.8405 17.7522 39.9995 17.7522C38.1586 17.7522 36.6662 19.2446 36.6662 21.0855V41.0855C36.6662 42.9265 38.1586 44.4189 39.9995 44.4189C41.8405 44.4189 43.3328 42.9265 43.3328 41.0855V21.0855Z" fill="#FFA800"/>
<path d="M43.3328 51.0855C43.3328 49.2446 41.8405 47.7522 39.9995 47.7522C38.1586 47.7522 36.6662 49.2446 36.6662 51.0855C36.6662 52.9265 38.1586 54.4189 39.9995 54.4189C41.8405 54.4189 43.3328 52.9265 43.3328 51.0855Z" fill="#FFA800"/>
</svg>
